# xmcd
#
# Track frame offsets: 
#        150
#        17437
#        36015
#        54835
#        75337
#        93732
#        111500
#        126857
#        139717
#        153992
#        167302
#        182492
#        206192
#        220427
#        236382
#
# Disc length: 3367 seconds
#
# Revision: 6
# Processed by: cddbd v1.5.1PL2 Copyright (c) Steve Scherf et al.
# Submitted via: ExactAudioCopy v0.95b4
#
DISCID=be0d250f
DTITLE=Various Artist - Harley Davidson Country Road Songs - Disk #2
DYEAR=1996
DGENRE=Country
TTITLE0=Shenandoah - Any Ole Strech of Blacktop Will Do
TTITLE1=Nitty Gritty Dirt Band - Let It Roll
TTITLE2=Mark Chesnutt - Texas Is Bigger Than It Used To Be
TTITLE3=Sammy Kershaw - Southbound
TTITLE4=The Bellamy Brothers - Old Hippie
TTITLE5=Trace Adkins - A Bad Way of Saying Goodbye
TTITLE6=Tracy Lawrence - Speed of a Fool
TTITLE7=Merle Haggard - White Line Fever
TTITLE8=Hank Williams, Jr. - Whisky Bent and Hell Bound
TTITLE9=John Bunzow - Desolation Road
TTITLE10=Clay Walker - Heartache Highway
TTITLE11=David Allan Coe - You Never Even Called Me By My Name
TTITLE12=Billy Dean - Billy the Kid
TTITLE13=McBride and The Ride - Burnin' Up the Road
TTITLE14=Asleep At The Wheel - The Wheel Keeps On Rollin'
EXTD=LABEL =Harley-Davidson\nID =7243-8-36476-2-0\nUPC =72438-36476
EXTD=20\nCOPYRIGHT =1996
EXTT0=
EXTT1=
EXTT2=
EXTT3=
EXTT4=
EXTT5=
EXTT6=
EXTT7=
EXTT8=
EXTT9=
EXTT10=
EXTT11=
EXTT12=
EXTT13=
EXTT14=
PLAYORDER=
